<?xml version="1.0" encoding="UTF-8"?>
<svg width="256" height="256" viewBox="0 0 256 256" fill="none" xmlns="http://www.w3.org/2000/svg">
  <!-- Background circle with gradient -->
  <circle cx="128" cy="128" r="128" fill="url(#grad1)"/>
  
  <!-- Robot head outline -->
  <path d="M128 60C94.9 60 68 86.9 68 120V160C68 193.1 94.9 220 128 220C161.1 220 188 193.1 188 160V120C188 86.9 161.1 60 128 60Z" 
        fill="#050505" stroke="#00f3ff" stroke-width="4"/>
  
  <!-- Robot eyes -->
  <circle cx="100" cy="120" r="12" fill="#00f3ff">
    <animate attributeName="opacity" values="0.7;1;0.7" dur="3s" repeatCount="indefinite"/>
  </circle>
  <circle cx="156" cy="120" r="12" fill="#00f3ff">
    <animate attributeName="opacity" values="0.7;1;0.7" dur="3s" repeatCount="indefinite"/>
  </circle>
  
  <!-- Robot mouth -->
  <path d="M100 160H156" stroke="#00f3ff" stroke-width="4" stroke-linecap="round">
    <animate attributeName="d" values="M100 160H156; M100 165H156; M100 160H156" dur="5s" repeatCount="indefinite"/>
  </path>
  
  <!-- Antenna -->
  <line x1="128" y1="60" x2="128" y2="40" stroke="#00f3ff" stroke-width="4"/>
  <circle cx="128" cy="35" r="6" fill="#ff00e6">
    <animate attributeName="r" values="6;8;6" dur="2s" repeatCount="indefinite"/>
  </circle>
  
  <!-- Brain waves -->
  <path d="M90 90C100 80 110 85 128 85C146 85 156 80 166 90" stroke="#ff00e6" stroke-width="2" stroke-dasharray="2 2">
    <animate attributeName="d" values="M90 90C100 80 110 85 128 85C146 85 156 80 166 90; M90 85C100 75 110 80 128 80C146 80 156 75 166 85; M90 90C100 80 110 85 128 85C146 85 156 80 166 90" dur="4s" repeatCount="indefinite"/>
  </path>
  
  <!-- Glow effect -->
  <circle cx="128" cy="128" r="126" stroke="#00f3ff" stroke-width="2" stroke-opacity="0.5" fill="none">
    <animate attributeName="stroke-opacity" values="0.3;0.8;0.3" dur="4s" repeatCount="indefinite"/>
  </circle>
  
  <!-- Extra glow effect -->
  <circle cx="128" cy="128" r="122" stroke="#ff00e6" stroke-width="1" stroke-opacity="0.3" fill="none">
    <animate attributeName="stroke-opacity" values="0.2;0.6;0.2" dur="5s" repeatCount="indefinite" begin="1s"/>
  </circle>
  
  <!-- Gradients -->
  <defs>
    <linearGradient id="grad1" x1="0%" y1="0%" x2="100%" y2="100%">
      <stop offset="0%" stop-color="#030303" />
      <stop offset="100%" stop-color="#050505" />
    </linearGradient>
  </defs>
</svg> 